<svg width="55" height="41" viewBox="0 0 55 41" fill="none" xmlns="http://www.w3.org/2000/svg">
<path d="M13.0041 16.3341C12.4094 16.3341 11.8387 16.4247 11.2707 16.5074C11.4547 15.8887 11.6441 15.2594 11.9481 14.6941C12.2521 13.8727 12.7267 13.1607 13.1987 12.4434C13.5934 11.6674 14.2894 11.1421 14.8014 10.4781C15.3374 9.83273 16.0681 9.40339 16.6467 8.86739C17.2147 8.30739 17.9587 8.02739 18.5507 7.63273C19.1694 7.27806 19.7081 6.88606 20.2841 6.6994L21.7214 6.10739L22.9854 5.58206L21.6921 0.414062L20.1001 0.798061C19.5907 0.926061 18.9694 1.07539 18.2627 1.25406C17.5401 1.38739 16.7694 1.75273 15.9107 2.08606C15.0627 2.46473 14.0814 2.72073 13.1694 3.32873C12.2521 3.91006 11.1934 4.3954 10.2601 5.17406C9.35606 5.97673 8.26539 6.67273 7.46005 7.69406C6.58005 8.64873 5.71072 9.65139 5.03606 10.7927C4.25472 11.8807 3.72405 13.0754 3.16405 14.2567C2.65739 15.4381 2.24939 16.6461 1.91605 17.8194C1.28405 20.1714 1.00139 22.4061 0.892054 24.3181C0.801388 26.2327 0.854721 27.8247 0.966721 28.9767C1.00672 29.5207 1.08139 30.0487 1.13472 30.4141L1.20139 30.8621L1.27072 30.8461C1.74502 33.0616 2.83686 35.0976 4.41996 36.7185C6.00305 38.3395 8.0127 39.4791 10.2164 40.0056C12.4202 40.5321 14.7279 40.4239 16.8727 39.6936C19.0176 38.9633 20.9118 37.6407 22.3363 35.8788C23.7609 34.1169 24.6575 31.9877 24.9225 29.7375C25.1875 27.4873 24.81 25.2081 23.8337 23.1635C22.8575 21.1188 21.3223 19.3924 19.4058 18.1838C17.4893 16.9752 15.2698 16.3339 13.0041 16.3341ZM42.3374 16.3341C41.7427 16.3341 41.1721 16.4247 40.6041 16.5074C40.7881 15.8887 40.9774 15.2594 41.2814 14.6941C41.5854 13.8727 42.0601 13.1607 42.5321 12.4434C42.9267 11.6674 43.6227 11.1421 44.1347 10.4781C44.6707 9.83273 45.4014 9.40339 45.9801 8.86739C46.5481 8.30739 47.2921 8.02739 47.8841 7.63273C48.5027 7.27806 49.0414 6.88606 49.6174 6.6994L51.0547 6.10739L52.3187 5.58206L51.0254 0.414062L49.4334 0.798061C48.9241 0.926061 48.3027 1.07539 47.5961 1.25406C46.8734 1.38739 46.1027 1.75273 45.2441 2.08606C44.3987 2.4674 43.4147 2.72073 42.5027 3.3314C41.5854 3.91273 40.5267 4.39806 39.5934 5.17673C38.6894 5.97939 37.5987 6.6754 36.7934 7.69406C35.9134 8.64873 35.0441 9.65139 34.3694 10.7927C33.5881 11.8807 33.0574 13.0754 32.4974 14.2567C31.9907 15.4381 31.5827 16.6461 31.2494 17.8194C30.6174 20.1714 30.3347 22.4061 30.2254 24.3181C30.1347 26.2327 30.1881 27.8247 30.3001 28.9767C30.3401 29.5207 30.4147 30.0487 30.4681 30.4141L30.5347 30.8621L30.6041 30.8461C31.0784 33.0616 32.1702 35.0976 33.7533 36.7185C35.3364 38.3395 37.346 39.4791 39.5498 40.0056C41.7535 40.5321 44.0612 40.4239 46.2061 39.6936C48.3509 38.9633 50.2451 37.6407 51.6697 35.8788C53.0942 34.1169 53.9908 31.9877 54.2558 29.7375C54.5208 27.4873 54.1433 25.2081 53.1671 23.1635C52.1908 21.1188 50.6556 19.3924 48.7391 18.1838C46.8226 16.9752 44.6031 16.3339 42.3374 16.3341Z" fill="#EDEDED"/>
</svg>
