<svg width="54" height="40" viewBox="0 0 54 40" fill="none" xmlns="http://www.w3.org/2000/svg">
<path d="M53.204 9.92267L53.1374 9.47467L53.068 9.49067C52.5942 7.27476 51.5026 5.23831 49.9196 3.61693C48.3366 1.99556 46.3269 0.855531 44.123 0.328756C41.919 -0.198019 39.611 -0.0900099 37.4659 0.640287C35.3208 1.37058 33.4264 2.69332 32.0017 4.45545C30.577 6.21757 29.6804 8.34707 29.4156 10.5975C29.1507 12.848 29.5285 15.1275 30.5052 17.1722C31.4819 19.2169 33.0175 20.9433 34.9345 22.1516C36.8515 23.3599 39.0714 24.0008 41.3374 24C41.932 24 42.5027 23.9093 43.0707 23.8267C42.8867 24.4453 42.6974 25.0747 42.3934 25.64C42.0894 26.4613 41.6147 27.1733 41.1427 27.8907C40.748 28.6667 40.052 29.192 39.54 29.856C39.004 30.5013 38.2734 30.9307 37.6947 31.4667C37.1267 32.0267 36.3827 32.3067 35.7907 32.7013C35.172 33.056 34.6334 33.448 34.0574 33.6347L32.62 34.2267L31.356 34.752L32.6467 39.9227L34.2387 39.5387C34.748 39.4107 35.3694 39.2613 36.076 39.0827C36.7987 38.9493 37.5694 38.584 38.428 38.2507C39.2734 37.8693 40.2574 37.616 41.1694 37.0053C42.0867 36.424 43.1454 35.9387 44.0787 35.16C44.9827 34.3573 46.0734 33.6613 46.8787 32.6427C47.7587 31.688 48.628 30.6853 49.3027 29.544C50.084 28.456 50.6147 27.2613 51.1747 26.08C51.6814 24.8987 52.0894 23.6907 52.4227 22.5173C53.0547 20.1653 53.3374 17.9307 53.4467 16.0187C53.5374 14.104 53.484 12.512 53.372 11.36C53.3346 10.8789 53.2785 10.3994 53.204 9.92267ZM23.8707 9.92267L23.804 9.47467L23.7347 9.49067C23.2609 7.27476 22.1693 5.23831 20.5863 3.61693C19.0033 1.99556 16.9936 0.855531 14.7896 0.328756C12.5857 -0.198019 10.2777 -0.0900099 8.13259 0.640287C5.9875 1.37058 4.09302 2.69332 2.66836 4.45545C1.24369 6.21757 0.347075 8.34707 0.0822429 10.5975C-0.182589 12.848 0.195191 15.1275 1.17187 17.1722C2.14855 19.2169 3.68422 20.9433 5.60118 22.1516C7.51814 23.3599 9.73804 24.0008 12.004 24C12.5987 24 13.1694 23.9093 13.7374 23.8267C13.5534 24.4453 13.364 25.0747 13.06 25.64C12.756 26.4613 12.2814 27.1733 11.8094 27.8907C11.4147 28.6667 10.7187 29.192 10.2067 29.856C9.67071 30.5013 8.94004 30.9307 8.36137 31.4667C7.79337 32.0267 7.04938 32.3067 6.45738 32.7013C5.83871 33.056 5.30004 33.448 4.72404 33.6347L3.28671 34.2267C2.48404 34.5547 2.02538 34.7467 2.02538 34.7467L3.31604 39.9173L4.90804 39.5333C5.41738 39.4053 6.03871 39.256 6.74538 39.0773C7.46804 38.944 8.23871 38.5787 9.09737 38.2453C9.94271 37.864 10.9267 37.6107 11.8387 37C12.756 36.4187 13.8147 35.9333 14.748 35.1547C15.652 34.352 16.7427 33.656 17.548 32.6373C18.428 31.6827 19.2974 30.68 19.972 29.5387C20.7534 28.4507 21.284 27.256 21.844 26.0747C22.3507 24.8933 22.7587 23.6853 23.092 22.512C23.724 20.16 24.0067 17.9253 24.116 16.0133C24.2067 14.0987 24.1534 12.5067 24.0414 11.3547C24.0016 10.8755 23.9446 10.3978 23.8707 9.92267Z" fill="#EDEDED"/>
</svg>
